<?xml version="1.0" encoding="utf-8"?>
<!-- Generator: Adobe Illustrator 26.0.1, SVG Export Plug-In . SVG Version: 6.00 Build 0)  -->
<svg version="1.1" id="Layer_1" xmlns="http://www.w3.org/2000/svg" xmlns:xlink="http://www.w3.org/1999/xlink" x="0px" y="0px"
	 viewBox="0 0 90.65 99.21" style="enable-background:new 0 0 90.65 99.21;" xml:space="preserve">
<style type="text/css">
	.st0{clip-path:url(#SVGID_00000160883746145478686840000016431416086071497886_);fill:#FFFFFF;}
</style>
<g>
	<defs>
		<path id="SVGID_1_" d="M0,49.61c0,27.35,22.25,49.61,49.6,49.61c16.46,0,31.79-8.13,41.04-21.74c-3.66-3.08-8.44-4.9-13.6-4.9
			c-3.91,0-7.56,1-10.7,2.86c-4.93,3.2-10.7,4.99-16.75,4.99c-16.98,0-30.8-13.82-30.8-30.81S32.62,18.8,49.6,18.8
			c5.61,0,11.01,1.59,15.72,4.39c3.13,1.86,6.71,2.75,10.61,2.75c3.93,0,7.64-1.06,10.8-2.92l3.01-2.16l0.19-0.13
			C80.64,7.75,65.56,0,49.6,0C22.25,0,0,22.25,0,49.61"/>
	</defs>
	<use xlink:href="#SVGID_1_"  style="overflow:visible;fill:#FFFFFF;"/>
	<clipPath id="SVGID_00000147915583304336573990000012534333568786844076_">
		<use xlink:href="#SVGID_1_"  style="overflow:visible;"/>
	</clipPath>
	
		<rect x="-18.73" y="-16.02" transform="matrix(0.866 -0.5 0.5 0.866 -18.7306 29.3074)" style="clip-path:url(#SVGID_00000147915583304336573990000012534333568786844076_);fill:#FFFFFF;" width="128.11" height="131.24"/>
</g>
</svg>
