<?xml version="1.0" encoding="utf-8"?>
<!-- Generator: Adobe Illustrator 26.0.1, SVG Export Plug-In . SVG Version: 6.00 Build 0)  -->
<svg version="1.1" id="Layer_1" xmlns="http://www.w3.org/2000/svg" xmlns:xlink="http://www.w3.org/1999/xlink" x="0px" y="0px"
	 viewBox="0 0 334.98 294.13" style="enable-background:new 0 0 334.98 294.13;" xml:space="preserve">
<style type="text/css">
	.st0{fill:#D8D8D8;}
</style>
<g>
	<path class="st0" d="M243.13,61.12c-16.56-23.1-43.4-36.89-71.79-36.89c-48.68,0-88.29,39.61-88.29,88.29s39.6,88.29,88.29,88.29
		c29.29,0,56.57-14.47,73.05-38.7c-6.51-5.48-15.02-8.73-24.2-8.73c-6.95,0-13.46,1.78-19.03,5.08c-8.77,5.7-19.04,8.89-29.81,8.89
		c-30.23,0-54.83-24.6-54.83-54.83c0-30.23,24.6-54.83,54.83-54.83c9.98,0,19.6,2.83,27.98,7.81c5.58,3.3,11.94,4.9,18.89,4.9
		c6.99,0,13.59-1.88,19.22-5.19l5.37-3.85L243.13,61.12z"/>
	<g>
		<g>
			<path class="st0" d="M282.46,264.45c-69.18,0-138.35,0-207.53,0c-9.99,0-19.98,0-29.97,0c-4.39,0-4.39,6.82,0,6.82
				c69.18,0,138.35,0,207.53,0c9.99,0,19.98,0,29.97,0C286.85,271.27,286.85,264.45,282.46,264.45L282.46,264.45z"/>
		</g>
		<g>
			<path class="st0" d="M245.16,243.15c-47.4,0-94.8,0-142.2,0c-6.9,0-13.8,0-20.7,0c-4.39,0-4.39,6.82,0,6.82
				c47.4,0,94.8,0,142.2,0c6.9,0,13.8,0,20.7,0C249.55,249.97,249.55,243.15,245.16,243.15L245.16,243.15z"/>
		</g>
		<g>
			<path class="st0" d="M222.1,221.85c-38.93,0-77.86,0-116.78,0c-4.39,0-4.39,6.82,0,6.82c38.93,0,77.86,0,116.78,0
				C226.49,228.67,226.5,221.85,222.1,221.85L222.1,221.85z"/>
		</g>
	</g>
</g>
</svg>
