<?xml version="1.0" encoding="utf-8"?>
<!-- Generator: Adobe Illustrator 26.0.1, SVG Export Plug-In . SVG Version: 6.00 Build 0)  -->
<svg version="1.1" id="Layer_1" xmlns="http://www.w3.org/2000/svg" xmlns:xlink="http://www.w3.org/1999/xlink" x="0px" y="0px"
	 viewBox="0 0 67.2 345.84" style="enable-background:new 0 0 67.2 345.84;" xml:space="preserve">
<style type="text/css">
	.st0{fill:#FFFFFF;}
</style>
<g>
	<g>
		<path class="st0" d="M9.27,341.37c0-94.08,0-188.16,0-282.25c0-13.59,0-27.18,0-40.76c0-5.96-9.27-5.97-9.27,0
			c0,94.08,0,188.16,0,282.25c0,13.59,0,27.18,0,40.76C0,347.33,9.27,347.34,9.27,341.37L9.27,341.37z"/>
	</g>
	<g>
		<path class="st0" d="M38.23,290.63c0-64.46,0-128.93,0-193.39c0-9.39,0-18.77,0-28.16c0-5.96-9.27-5.97-9.27,0
			c0,64.46,0,128.93,0,193.39c0,9.39,0,18.77,0,28.16C28.97,296.6,38.23,296.61,38.23,290.63L38.23,290.63z"/>
	</g>
	<g>
		<path class="st0" d="M67.2,259.28c0-52.94,0-105.89,0-158.83c0-5.96-9.27-5.97-9.27,0c0,52.94,0,105.89,0,158.83
			C57.93,265.24,67.2,265.25,67.2,259.28L67.2,259.28z"/>
	</g>
</g>
</svg>
