<?xml version="1.0" encoding="utf-8"?>
<!-- Generator: Adobe Illustrator 26.0.1, SVG Export Plug-In . SVG Version: 6.00 Build 0)  -->
<svg version="1.1" id="Layer_1" xmlns="http://www.w3.org/2000/svg" xmlns:xlink="http://www.w3.org/1999/xlink" x="0px" y="0px"
	 viewBox="0 0 100.98 367.09" style="enable-background:new 0 0 100.98 367.09;" xml:space="preserve">
<style type="text/css">
	.st0{fill:#D51F36;}
</style>
<g>
	<g>
		<path class="st0" d="M74.8,19.99c0,94.08,0,188.16,0,282.25c0,13.59,0,27.18,0,40.76c0,5.96,9.27,5.97,9.27,0
			c0-94.08,0-188.16,0-282.25c0-13.59,0-27.18,0-40.76C84.06,14.02,74.8,14.01,74.8,19.99L74.8,19.99z"/>
	</g>
	<g>
		<path class="st0" d="M45.83,70.72c0,64.46,0,128.93,0,193.39c0,9.39,0,18.77,0,28.16c0,5.96,9.27,5.97,9.27,0
			c0-64.46,0-128.93,0-193.39c0-9.39,0-18.77,0-28.16C55.1,64.75,45.83,64.74,45.83,70.72L45.83,70.72z"/>
	</g>
	<g>
		<path class="st0" d="M16.86,102.08c0,52.94,0,105.89,0,158.83c0,5.96,9.27,5.97,9.27,0c0-52.94,0-105.89,0-158.83
			C26.13,96.11,16.86,96.1,16.86,102.08L16.86,102.08z"/>
	</g>
</g>
</svg>
